%TF.GenerationSoftware,KiCad,Pcbnew,6.0.2-378541a8eb~116~ubuntu20.04.1*%
%TF.CreationDate,2022-03-07T10:10:33+02:00*%
%TF.ProjectId,system,73797374-656d-42e6-9b69-6361645f7063,rev?*%
%TF.SameCoordinates,Original*%
%TF.FileFunction,Copper,L1,Top*%
%TF.FilePolarity,Positive*%
%FSLAX46Y46*%
G04 Gerber Fmt 4.6, Leading zero omitted, Abs format (unit mm)*
G04 Created by KiCad (PCBNEW 6.0.2-378541a8eb~116~ubuntu20.04.1) date 2022-03-07 10:10:33*
%MOMM*%
%LPD*%
G01*
G04 APERTURE LIST*
G04 Aperture macros list*
%AMRoundRect*
0 Rectangle with rounded corners*
0 $1 Rounding radius*
0 $2 $3 $4 $5 $6 $7 $8 $9 X,Y pos of 4 corners*
0 Add a 4 corners polygon primitive as box body*
4,1,4,$2,$3,$4,$5,$6,$7,$8,$9,$2,$3,0*
0 Add four circle primitives for the rounded corners*
1,1,$1+$1,$2,$3*
1,1,$1+$1,$4,$5*
1,1,$1+$1,$6,$7*
1,1,$1+$1,$8,$9*
0 Add four rect primitives between the rounded corners*
20,1,$1+$1,$2,$3,$4,$5,0*
20,1,$1+$1,$4,$5,$6,$7,0*
20,1,$1+$1,$6,$7,$8,$9,0*
20,1,$1+$1,$8,$9,$2,$3,0*%
G04 Aperture macros list end*
%TA.AperFunction,ComponentPad*%
%ADD10R,1.800000X1.100000*%
%TD*%
%TA.AperFunction,ComponentPad*%
%ADD11RoundRect,0.275000X-0.625000X0.275000X-0.625000X-0.275000X0.625000X-0.275000X0.625000X0.275000X0*%
%TD*%
%TA.AperFunction,ComponentPad*%
%ADD12R,1.700000X1.700000*%
%TD*%
%TA.AperFunction,ComponentPad*%
%ADD13C,1.400000*%
%TD*%
%TA.AperFunction,ComponentPad*%
%ADD14O,1.400000X1.400000*%
%TD*%
%TA.AperFunction,ComponentPad*%
%ADD15O,1.700000X1.700000*%
%TD*%
%TA.AperFunction,ComponentPad*%
%ADD16R,1.100000X1.800000*%
%TD*%
%TA.AperFunction,ComponentPad*%
%ADD17RoundRect,0.275000X0.275000X0.625000X-0.275000X0.625000X-0.275000X-0.625000X0.275000X-0.625000X0*%
%TD*%
%TA.AperFunction,ComponentPad*%
%ADD18R,1.600000X1.600000*%
%TD*%
%TA.AperFunction,ComponentPad*%
%ADD19C,1.600000*%
%TD*%
%TA.AperFunction,ComponentPad*%
%ADD20O,1.600000X1.600000*%
%TD*%
%TA.AperFunction,ComponentPad*%
%ADD21R,2.600000X2.600000*%
%TD*%
%TA.AperFunction,ComponentPad*%
%ADD22C,2.600000*%
%TD*%
%TA.AperFunction,ComponentPad*%
%ADD23C,2.000000*%
%TD*%
%TA.AperFunction,ComponentPad*%
%ADD24R,1.300000X1.300000*%
%TD*%
%TA.AperFunction,ComponentPad*%
%ADD25C,1.300000*%
%TD*%
%TA.AperFunction,ComponentPad*%
%ADD26O,2.900000X1.900000*%
%TD*%
%TA.AperFunction,ComponentPad*%
%ADD27O,1.900000X2.900000*%
%TD*%
%TA.AperFunction,ComponentPad*%
%ADD28R,1.400000X1.400000*%
%TD*%
%TA.AperFunction,ViaPad*%
%ADD29C,4.700000*%
%TD*%
%TA.AperFunction,Conductor*%
%ADD30C,1.200000*%
%TD*%
%TA.AperFunction,Conductor*%
%ADD31C,6.000000*%
%TD*%
%TA.AperFunction,Conductor*%
%ADD32C,2.400000*%
%TD*%
%TA.AperFunction,Conductor*%
%ADD33C,0.500000*%
%TD*%
G04 APERTURE END LIST*
D10*
%TO.P,Q6,1,G*%
%TO.N,Net-(Q5-Pad1)*%
X161290000Y-107312500D03*
D11*
%TO.P,Q6,2,D*%
%TO.N,+8V*%
X164400000Y-108582500D03*
%TO.P,Q6,3,S*%
%TO.N,Net-(J4-Pad2)*%
X161290000Y-109852500D03*
%TD*%
D10*
%TO.P,Q5,1,G*%
%TO.N,Net-(Q5-Pad1)*%
X161290000Y-90912500D03*
D11*
%TO.P,Q5,2,D*%
%TO.N,+8V*%
X164400000Y-92182500D03*
%TO.P,Q5,3,S*%
%TO.N,Net-(J3-Pad2)*%
X161290000Y-93452500D03*
%TD*%
D12*
%TO.P,Sol4,1*%
%TO.N,Net-(Q1-Pad1)*%
X178800000Y-125400000D03*
%TD*%
%TO.P,Sol2,1*%
%TO.N,Net-(Q3-Pad1)*%
X169900000Y-125400000D03*
%TD*%
D13*
%TO.P,R6,1*%
%TO.N,/Encoder_2_A*%
X201832000Y-83474000D03*
D14*
%TO.P,R6,2*%
%TO.N,Net-(D3-Pad1)*%
X206912000Y-83474000D03*
%TD*%
D13*
%TO.P,R7,1*%
%TO.N,Net-(R1-Pad1)*%
X184772000Y-49834000D03*
D14*
%TO.P,R7,2*%
%TO.N,Net-(D4-Pad1)*%
X184772000Y-54914000D03*
%TD*%
D12*
%TO.P,J12,1,Pin_1*%
%TO.N,unconnected-(J12-Pad1)*%
X243925000Y-42300000D03*
D15*
%TO.P,J12,2,Pin_2*%
%TO.N,unconnected-(J12-Pad2)*%
X246465000Y-42300000D03*
%TO.P,J12,3,Pin_3*%
%TO.N,unconnected-(J12-Pad3)*%
X243925000Y-44840000D03*
%TO.P,J12,4,Pin_4*%
%TO.N,unconnected-(J12-Pad4)*%
X246465000Y-44840000D03*
%TO.P,J12,5,Pin_5*%
%TO.N,unconnected-(J12-Pad5)*%
X243925000Y-47380000D03*
%TO.P,J12,6,Pin_6*%
%TO.N,unconnected-(J12-Pad6)*%
X246465000Y-47380000D03*
%TO.P,J12,7,Pin_7*%
%TO.N,unconnected-(J12-Pad7)*%
X243925000Y-49920000D03*
%TO.P,J12,8,Pin_8*%
%TO.N,unconnected-(J12-Pad8)*%
X246465000Y-49920000D03*
%TD*%
D13*
%TO.P,R4,1*%
%TO.N,/Encoder_1_B*%
X201832000Y-75376000D03*
D14*
%TO.P,R4,2*%
%TO.N,Net-(D2-Pad1)*%
X206912000Y-75376000D03*
%TD*%
D13*
%TO.P,R8,1*%
%TO.N,/Encoder_2_B*%
X201832000Y-86776000D03*
D14*
%TO.P,R8,2*%
%TO.N,Net-(D4-Pad1)*%
X206912000Y-86776000D03*
%TD*%
D16*
%TO.P,Q1,1,D*%
%TO.N,Net-(Q1-Pad1)*%
X180900000Y-138700000D03*
D17*
%TO.P,Q1,2,G*%
%TO.N,/GPIO_19*%
X179630000Y-140770000D03*
%TO.P,Q1,3,S*%
%TO.N,GND*%
X178360000Y-138700000D03*
%TD*%
D12*
%TO.P,J4,1,Pin_1*%
%TO.N,/GPIO_13*%
X151190000Y-104387500D03*
D15*
%TO.P,J4,2,Pin_2*%
%TO.N,Net-(J4-Pad2)*%
X151190000Y-106927500D03*
%TO.P,J4,3,Pin_3*%
%TO.N,GND*%
X151190000Y-109467500D03*
%TD*%
D12*
%TO.P,Reg1,1,EN*%
%TO.N,unconnected-(Reg1-Pad1)*%
X141825000Y-37550000D03*
D15*
%TO.P,Reg1,2,V_in*%
%TO.N,+8V*%
X141825000Y-40090000D03*
%TO.P,Reg1,3,GND*%
%TO.N,GND*%
X141825000Y-42630000D03*
%TO.P,Reg1,4,GND*%
X141825000Y-45170000D03*
%TO.P,Reg1,5,V_out*%
%TO.N,Net-(J8-Pad1)*%
X141825000Y-47710000D03*
%TD*%
D18*
%TO.P,C1,1*%
%TO.N,Net-(C1-Pad1)*%
X117800000Y-48600000D03*
D19*
%TO.P,C1,2*%
%TO.N,GND*%
X115300000Y-48600000D03*
%TD*%
D16*
%TO.P,Q3,1,D*%
%TO.N,Net-(Q3-Pad1)*%
X172100000Y-138800000D03*
D17*
%TO.P,Q3,2,G*%
%TO.N,/GPIO_6*%
X170830000Y-140870000D03*
%TO.P,Q3,3,S*%
%TO.N,GND*%
X169560000Y-138800000D03*
%TD*%
D20*
%TO.P,D1,2,A*%
%TO.N,GND*%
X199272000Y-47764000D03*
D18*
%TO.P,D1,1,K*%
%TO.N,Net-(D1-Pad1)*%
X199272000Y-55384000D03*
%TD*%
D12*
%TO.P,J10,1,Pin_1*%
%TO.N,unconnected-(J10-Pad1)*%
X109325000Y-65525000D03*
D15*
%TO.P,J10,2,Pin_2*%
%TO.N,unconnected-(J10-Pad2)*%
X111865000Y-65525000D03*
%TO.P,J10,3,Pin_3*%
%TO.N,unconnected-(J10-Pad3)*%
X109325000Y-68065000D03*
%TO.P,J10,4,Pin_4*%
%TO.N,unconnected-(J10-Pad4)*%
X111865000Y-68065000D03*
%TO.P,J10,5,Pin_5*%
%TO.N,unconnected-(J10-Pad5)*%
X109325000Y-70605000D03*
%TO.P,J10,6,Pin_6*%
%TO.N,unconnected-(J10-Pad6)*%
X111865000Y-70605000D03*
%TO.P,J10,7,Pin_7*%
%TO.N,unconnected-(J10-Pad7)*%
X109325000Y-73145000D03*
%TO.P,J10,8,Pin_8*%
%TO.N,unconnected-(J10-Pad8)*%
X111865000Y-73145000D03*
%TO.P,J10,9,Pin_9*%
%TO.N,unconnected-(J10-Pad9)*%
X109325000Y-75685000D03*
%TO.P,J10,10,Pin_10*%
%TO.N,unconnected-(J10-Pad10)*%
X111865000Y-75685000D03*
%TO.P,J10,11,Pin_11*%
%TO.N,unconnected-(J10-Pad11)*%
X109325000Y-78225000D03*
%TO.P,J10,12,Pin_12*%
%TO.N,unconnected-(J10-Pad12)*%
X111865000Y-78225000D03*
%TO.P,J10,13,Pin_13*%
%TO.N,unconnected-(J10-Pad13)*%
X109325000Y-80765000D03*
%TO.P,J10,14,Pin_14*%
%TO.N,unconnected-(J10-Pad14)*%
X111865000Y-80765000D03*
%TO.P,J10,15,Pin_15*%
%TO.N,unconnected-(J10-Pad15)*%
X109325000Y-83305000D03*
%TO.P,J10,16,Pin_16*%
%TO.N,unconnected-(J10-Pad16)*%
X111865000Y-83305000D03*
%TD*%
D21*
%TO.P,J5,1,Pin_1*%
%TO.N,/Encoder_2_B*%
X239500000Y-130200000D03*
D22*
%TO.P,J5,2,Pin_2*%
%TO.N,/Encoder_2_A*%
X236000000Y-130200000D03*
%TD*%
D13*
%TO.P,R3,1*%
%TO.N,/Encoder_1_A*%
X201832000Y-72074000D03*
D14*
%TO.P,R3,2*%
%TO.N,Net-(D1-Pad1)*%
X206912000Y-72074000D03*
%TD*%
D23*
%TO.P,SW2,1,1*%
%TO.N,Net-(SW2-Pad1)*%
X225550000Y-104350000D03*
X232050000Y-104350000D03*
%TO.P,SW2,2,2*%
%TO.N,Net-(SW2-Pad2)*%
X225550000Y-99850000D03*
X232050000Y-99850000D03*
%TD*%
D19*
%TO.P,U1,1,GND*%
%TO.N,GND*%
X220760000Y-59480000D03*
%TO.P,U1,2,0_RX1_CRX2_CS1*%
%TO.N,unconnected-(U1-Pad2)*%
X220760000Y-62020000D03*
%TO.P,U1,3,1_TX1_CTX2_MISO1*%
%TO.N,unconnected-(U1-Pad3)*%
X220760000Y-64560000D03*
%TO.P,U1,4,2_OUT2*%
%TO.N,unconnected-(U1-Pad4)*%
X220760000Y-67100000D03*
%TO.P,U1,5,3_LRCLK2*%
%TO.N,unconnected-(U1-Pad5)*%
X220760000Y-69640000D03*
%TO.P,U1,6,4_BCLK2*%
%TO.N,unconnected-(U1-Pad6)*%
X220760000Y-72180000D03*
%TO.P,U1,7,5_IN2*%
%TO.N,Net-(D1-Pad1)*%
X220760000Y-74720000D03*
%TO.P,U1,8,6_OUT1D*%
%TO.N,Net-(D2-Pad1)*%
X220760000Y-77260000D03*
%TO.P,U1,9,7_RX2_OUT1A*%
%TO.N,unconnected-(U1-Pad9)*%
X220760000Y-79800000D03*
%TO.P,U1,10,8_TX2_IN1*%
%TO.N,Net-(D3-Pad1)*%
X220760000Y-82340000D03*
%TO.P,U1,11,9_OUT1C*%
%TO.N,Net-(D4-Pad1)*%
X220760000Y-84880000D03*
%TO.P,U1,12,10_CS_MQSR*%
%TO.N,unconnected-(U1-Pad12)*%
X220760000Y-87420000D03*
%TO.P,U1,13,11_MOSI_CTX1*%
%TO.N,Net-(SW2-Pad1)*%
X220760000Y-89960000D03*
%TO.P,U1,14,12_MISO_MQSL*%
%TO.N,Net-(SW2-Pad2)*%
X220760000Y-92500000D03*
%TO.P,U1,15,VBAT*%
%TO.N,unconnected-(U1-Pad15)*%
X223300000Y-92500000D03*
%TO.P,U1,16,3V3*%
%TO.N,unconnected-(U1-Pad16)*%
X225840000Y-92500000D03*
%TO.P,U1,17,GND*%
%TO.N,unconnected-(U1-Pad17)*%
X228380000Y-92500000D03*
%TO.P,U1,18,PROGRAM*%
%TO.N,unconnected-(U1-Pad18)*%
X230920000Y-92500000D03*
%TO.P,U1,19,ON_OFF*%
%TO.N,unconnected-(U1-Pad19)*%
X233460000Y-92500000D03*
%TO.P,U1,20,13_SCK_CRX1_LED*%
%TO.N,unconnected-(U1-Pad20)*%
X236000000Y-92500000D03*
%TO.P,U1,21,14_A0_TX3_SPDIF_OUT*%
%TO.N,unconnected-(U1-Pad21)*%
X236000000Y-89960000D03*
%TO.P,U1,22,15_A1_RX3_SPDIF_IN*%
%TO.N,unconnected-(U1-Pad22)*%
X236000000Y-87420000D03*
%TO.P,U1,23,16_A2_RX4_SCL1*%
%TO.N,unconnected-(U1-Pad23)*%
X236000000Y-84880000D03*
%TO.P,U1,24,17_A3_TX4_SDA1*%
%TO.N,unconnected-(U1-Pad24)*%
X236000000Y-82340000D03*
%TO.P,U1,25,18_A4_SDA0*%
%TO.N,unconnected-(U1-Pad25)*%
X236000000Y-79800000D03*
%TO.P,U1,26,19_A5_SCL0*%
%TO.N,unconnected-(U1-Pad26)*%
X236000000Y-77260000D03*
%TO.P,U1,27,20_A6_TX5_LRCLK1*%
%TO.N,unconnected-(U1-Pad27)*%
X236000000Y-74720000D03*
%TO.P,U1,28,21_A7_RX5_BCLK1*%
%TO.N,unconnected-(U1-Pad28)*%
X236000000Y-72180000D03*
%TO.P,U1,29,22_A8_CTX1*%
%TO.N,/Servo_Left*%
X236000000Y-69640000D03*
%TO.P,U1,30,23_A9_CRX1_MCLK1*%
%TO.N,/Servo_Right*%
X236000000Y-67100000D03*
%TO.P,U1,31,3V3*%
%TO.N,unconnected-(U1-Pad31)*%
X236000000Y-64560000D03*
%TO.P,U1,32,GND*%
%TO.N,GND*%
X236000000Y-62020000D03*
%TO.P,U1,33,VIN*%
%TO.N,Net-(R1-Pad1)*%
X236000000Y-59480000D03*
%TO.P,U1,34,VUSB*%
%TO.N,unconnected-(U1-Pad34)*%
X233460000Y-62020000D03*
%TO.P,U1,35,24_A10_TX6_SCL2*%
%TO.N,unconnected-(U1-Pad35)*%
X233460000Y-87420000D03*
%TO.P,U1,36,25_A11_RX6_SDA2*%
%TO.N,unconnected-(U1-Pad36)*%
X233460000Y-84880000D03*
%TO.P,U1,37,26_A12_MOSI1*%
%TO.N,unconnected-(U1-Pad37)*%
X230920000Y-87420000D03*
%TO.P,U1,38,27_A13_SCK1*%
%TO.N,unconnected-(U1-Pad38)*%
X230920000Y-84880000D03*
%TO.P,U1,39,28_RX7*%
%TO.N,unconnected-(U1-Pad39)*%
X228380000Y-87420000D03*
%TO.P,U1,40,29_TX7*%
%TO.N,unconnected-(U1-Pad40)*%
X228380000Y-84880000D03*
%TO.P,U1,41,30_CRX3*%
%TO.N,unconnected-(U1-Pad41)*%
X225840000Y-87420000D03*
%TO.P,U1,42,31_CTX3*%
%TO.N,unconnected-(U1-Pad42)*%
X225840000Y-84880000D03*
%TO.P,U1,43,32_OUT1B*%
%TO.N,unconnected-(U1-Pad43)*%
X223300000Y-87420000D03*
%TO.P,U1,44,33_MCLK2*%
%TO.N,unconnected-(U1-Pad44)*%
X223300000Y-84880000D03*
%TD*%
D20*
%TO.P,D2,2,A*%
%TO.N,GND*%
X203772000Y-47764000D03*
D18*
%TO.P,D2,1,K*%
%TO.N,Net-(D2-Pad1)*%
X203772000Y-55384000D03*
%TD*%
D13*
%TO.P,R2,1*%
%TO.N,Net-(R1-Pad1)*%
X211400000Y-50000000D03*
D14*
%TO.P,R2,2*%
%TO.N,Net-(D2-Pad1)*%
X211400000Y-55080000D03*
%TD*%
D24*
%TO.P,J8,1,VBUS*%
%TO.N,Net-(J8-Pad1)*%
X128200000Y-46700000D03*
D25*
%TO.P,J8,2,D-*%
%TO.N,Net-(C1-Pad1)*%
X128200000Y-44200000D03*
%TO.P,J8,3,D+*%
%TO.N,Net-(C2-Pad1)*%
X128200000Y-42200000D03*
%TO.P,J8,4,GND*%
%TO.N,GND*%
X128200000Y-39700000D03*
D26*
%TO.P,J8,5,Shield*%
X127600000Y-49770000D03*
D27*
X123420000Y-43200000D03*
D26*
X127600000Y-36630000D03*
%TD*%
D18*
%TO.P,C2,1*%
%TO.N,Net-(C2-Pad1)*%
X117800000Y-40000000D03*
D19*
%TO.P,C2,2*%
%TO.N,GND*%
X115300000Y-40000000D03*
%TD*%
D12*
%TO.P,Sol3,1*%
%TO.N,Net-(Q4-Pad1)*%
X160775000Y-125350000D03*
%TD*%
D21*
%TO.P,J6,1,Pin_1*%
%TO.N,/Servo_Right*%
X243655000Y-99050000D03*
D22*
%TO.P,J6,2,Pin_2*%
%TO.N,/Servo_Left*%
X243655000Y-102550000D03*
%TD*%
D20*
%TO.P,D3,2,A*%
%TO.N,GND*%
X172062000Y-70574000D03*
D18*
%TO.P,D3,1,K*%
%TO.N,Net-(D3-Pad1)*%
X179682000Y-70574000D03*
%TD*%
D13*
%TO.P,R1,1*%
%TO.N,Net-(R1-Pad1)*%
X215500000Y-49960000D03*
D14*
%TO.P,R1,2*%
%TO.N,Net-(D1-Pad1)*%
X215500000Y-55040000D03*
%TD*%
D13*
%TO.P,SW1,6*%
%TO.N,N/C*%
X155692500Y-76050000D03*
%TO.P,SW1,5*%
X153192500Y-76050000D03*
%TO.P,SW1,4*%
X150692500Y-76050000D03*
%TO.P,SW1,3*%
X155692500Y-72750000D03*
%TO.P,SW1,2,B*%
%TO.N,Net-(Q5-Pad1)*%
X153192500Y-72750000D03*
D28*
%TO.P,SW1,1,A*%
%TO.N,/3.3V*%
X150692500Y-72750000D03*
%TD*%
D12*
%TO.P,J1,1,Pin_1*%
%TO.N,/3.3V*%
X131800000Y-55200000D03*
D15*
%TO.P,J1,2,Pin_2*%
%TO.N,/5V*%
X134340000Y-55200000D03*
%TO.P,J1,3,Pin_3*%
%TO.N,/GPIO_2*%
X131800000Y-57740000D03*
%TO.P,J1,4,Pin_4*%
%TO.N,/5V*%
X134340000Y-57740000D03*
%TO.P,J1,5,Pin_5*%
%TO.N,/GPIO_3*%
X131800000Y-60280000D03*
%TO.P,J1,6,Pin_6*%
%TO.N,/Ground*%
X134340000Y-60280000D03*
%TO.P,J1,7,Pin_7*%
%TO.N,/GPIO_4*%
X131800000Y-62820000D03*
%TO.P,J1,8,Pin_8*%
%TO.N,/GPIO_14*%
X134340000Y-62820000D03*
%TO.P,J1,9,Pin_9*%
%TO.N,/Ground*%
X131800000Y-65360000D03*
%TO.P,J1,10,Pin_10*%
%TO.N,/GPIO_15*%
X134340000Y-65360000D03*
%TO.P,J1,11,Pin_11*%
%TO.N,/GPIO_17*%
X131800000Y-67900000D03*
%TO.P,J1,12,Pin_12*%
%TO.N,/GPIO_18*%
X134340000Y-67900000D03*
%TO.P,J1,13,Pin_13*%
%TO.N,/GPIO_27*%
X131800000Y-70440000D03*
%TO.P,J1,14,Pin_14*%
%TO.N,/Ground*%
X134340000Y-70440000D03*
%TO.P,J1,15,Pin_15*%
%TO.N,/GPIO_22*%
X131800000Y-72980000D03*
%TO.P,J1,16,Pin_16*%
%TO.N,/GPIO_23*%
X134340000Y-72980000D03*
%TO.P,J1,17,Pin_17*%
%TO.N,/3.3V*%
X131800000Y-75520000D03*
%TO.P,J1,18,Pin_18*%
%TO.N,/GPIO_24*%
X134340000Y-75520000D03*
%TO.P,J1,19,Pin_19*%
%TO.N,/GPIO_10*%
X131800000Y-78060000D03*
%TO.P,J1,20,Pin_20*%
%TO.N,/Ground*%
X134340000Y-78060000D03*
%TO.P,J1,21,Pin_21*%
%TO.N,/GPIO_9*%
X131800000Y-80600000D03*
%TO.P,J1,22,Pin_22*%
%TO.N,/GPIO_25*%
X134340000Y-80600000D03*
%TO.P,J1,23,Pin_23*%
%TO.N,/GPIO_11*%
X131800000Y-83140000D03*
%TO.P,J1,24,Pin_24*%
%TO.N,/GPIO_8*%
X134340000Y-83140000D03*
%TO.P,J1,25,Pin_25*%
%TO.N,/Ground*%
X131800000Y-85680000D03*
%TO.P,J1,26,Pin_26*%
%TO.N,/GPIO_7*%
X134340000Y-85680000D03*
%TO.P,J1,27,Pin_27*%
%TO.N,/GPIO_0*%
X131800000Y-88220000D03*
%TO.P,J1,28,Pin_28*%
%TO.N,/GPIO_1*%
X134340000Y-88220000D03*
%TO.P,J1,29,Pin_29*%
%TO.N,/GPIO_5*%
X131800000Y-90760000D03*
%TO.P,J1,30,Pin_30*%
%TO.N,/Ground*%
X134340000Y-90760000D03*
%TO.P,J1,31,Pin_31*%
%TO.N,/GPIO_6*%
X131800000Y-93300000D03*
%TO.P,J1,32,Pin_32*%
%TO.N,/GPIO_12*%
X134340000Y-93300000D03*
%TO.P,J1,33,Pin_33*%
%TO.N,/GPIO_13*%
X131800000Y-95840000D03*
%TO.P,J1,34,Pin_34*%
%TO.N,/Ground*%
X134340000Y-95840000D03*
%TO.P,J1,35,Pin_35*%
%TO.N,/GPIO_19*%
X131800000Y-98380000D03*
%TO.P,J1,36,Pin_36*%
%TO.N,/GPIO_16*%
X134340000Y-98380000D03*
%TO.P,J1,37,Pin_37*%
%TO.N,/GPIO_26*%
X131800000Y-100920000D03*
%TO.P,J1,38,Pin_38*%
%TO.N,/GPIO_20*%
X134340000Y-100920000D03*
%TO.P,J1,39,Pin_39*%
%TO.N,/Ground*%
X131800000Y-103460000D03*
%TO.P,J1,40,Pin_40*%
%TO.N,/GPIO_21*%
X134340000Y-103460000D03*
%TD*%
%TO.P,J3,3,Pin_3*%
%TO.N,GND*%
X151090000Y-93167500D03*
%TO.P,J3,2,Pin_2*%
%TO.N,Net-(J3-Pad2)*%
X151090000Y-90627500D03*
D12*
%TO.P,J3,1,Pin_1*%
%TO.N,/GPIO_12*%
X151090000Y-88087500D03*
%TD*%
%TO.P,Sol1,1*%
%TO.N,Net-(Q2-Pad1)*%
X187075000Y-125450000D03*
%TD*%
D20*
%TO.P,D4,2,A*%
%TO.N,GND*%
X172062000Y-66074000D03*
D18*
%TO.P,D4,1,K*%
%TO.N,Net-(D4-Pad1)*%
X179682000Y-66074000D03*
%TD*%
D13*
%TO.P,R5,1*%
%TO.N,Net-(R1-Pad1)*%
X188772000Y-49974000D03*
D14*
%TO.P,R5,2*%
%TO.N,Net-(D3-Pad1)*%
X188772000Y-55054000D03*
%TD*%
D21*
%TO.P,J2,1,Pin_1*%
%TO.N,/Encoder_1_B*%
X227000000Y-130200000D03*
D22*
%TO.P,J2,2,Pin_2*%
%TO.N,/Encoder_1_A*%
X223500000Y-130200000D03*
%TD*%
D16*
%TO.P,Q2,1,D*%
%TO.N,Net-(Q2-Pad1)*%
X189300000Y-138650000D03*
D17*
%TO.P,Q2,2,G*%
%TO.N,/GPIO_26*%
X188030000Y-140720000D03*
%TO.P,Q2,3,S*%
%TO.N,GND*%
X186760000Y-138650000D03*
%TD*%
D16*
%TO.P,Q4,1,D*%
%TO.N,Net-(Q4-Pad1)*%
X163000000Y-138800000D03*
D17*
%TO.P,Q4,2,G*%
%TO.N,/GPIO_5*%
X161730000Y-140870000D03*
%TO.P,Q4,3,S*%
%TO.N,GND*%
X160460000Y-138800000D03*
%TD*%
D12*
%TO.P,J11,1,Pin_1*%
%TO.N,unconnected-(J11-Pad1)*%
X237350000Y-42300000D03*
D15*
%TO.P,J11,2,Pin_2*%
%TO.N,unconnected-(J11-Pad2)*%
X239890000Y-42300000D03*
%TO.P,J11,3,Pin_3*%
%TO.N,unconnected-(J11-Pad3)*%
X237350000Y-44840000D03*
%TO.P,J11,4,Pin_4*%
%TO.N,unconnected-(J11-Pad4)*%
X239890000Y-44840000D03*
%TO.P,J11,5,Pin_5*%
%TO.N,unconnected-(J11-Pad5)*%
X237350000Y-47380000D03*
%TO.P,J11,6,Pin_6*%
%TO.N,unconnected-(J11-Pad6)*%
X239890000Y-47380000D03*
%TO.P,J11,7,Pin_7*%
%TO.N,unconnected-(J11-Pad7)*%
X237350000Y-49920000D03*
%TO.P,J11,8,Pin_8*%
%TO.N,unconnected-(J11-Pad8)*%
X239890000Y-49920000D03*
%TD*%
D12*
%TO.P,J9,1,Pin_1*%
%TO.N,unconnected-(J9-Pad1)*%
X115925000Y-65525000D03*
D15*
%TO.P,J9,2,Pin_2*%
%TO.N,unconnected-(J9-Pad2)*%
X118465000Y-65525000D03*
%TO.P,J9,3,Pin_3*%
%TO.N,unconnected-(J9-Pad3)*%
X115925000Y-68065000D03*
%TO.P,J9,4,Pin_4*%
%TO.N,unconnected-(J9-Pad4)*%
X118465000Y-68065000D03*
%TO.P,J9,5,Pin_5*%
%TO.N,unconnected-(J9-Pad5)*%
X115925000Y-70605000D03*
%TO.P,J9,6,Pin_6*%
%TO.N,unconnected-(J9-Pad6)*%
X118465000Y-70605000D03*
%TO.P,J9,7,Pin_7*%
%TO.N,unconnected-(J9-Pad7)*%
X115925000Y-73145000D03*
%TO.P,J9,8,Pin_8*%
%TO.N,unconnected-(J9-Pad8)*%
X118465000Y-73145000D03*
%TO.P,J9,9,Pin_9*%
%TO.N,unconnected-(J9-Pad9)*%
X115925000Y-75685000D03*
%TO.P,J9,10,Pin_10*%
%TO.N,unconnected-(J9-Pad10)*%
X118465000Y-75685000D03*
%TO.P,J9,11,Pin_11*%
%TO.N,unconnected-(J9-Pad11)*%
X115925000Y-78225000D03*
%TO.P,J9,12,Pin_12*%
%TO.N,unconnected-(J9-Pad12)*%
X118465000Y-78225000D03*
%TO.P,J9,13,Pin_13*%
%TO.N,unconnected-(J9-Pad13)*%
X115925000Y-80765000D03*
%TO.P,J9,14,Pin_14*%
%TO.N,unconnected-(J9-Pad14)*%
X118465000Y-80765000D03*
%TO.P,J9,15,Pin_15*%
%TO.N,unconnected-(J9-Pad15)*%
X115925000Y-83305000D03*
%TO.P,J9,16,Pin_16*%
%TO.N,unconnected-(J9-Pad16)*%
X118465000Y-83305000D03*
%TD*%
D29*
%TO.N,GND*%
X180000000Y-36900000D03*
%TO.N,+8V*%
X169600000Y-36900000D03*
%TD*%
D30*
%TO.N,+8V*%
X141825000Y-40090000D02*
X161610000Y-40090000D01*
X161610000Y-40090000D02*
X164800000Y-36900000D01*
X164800000Y-36900000D02*
X169600000Y-36900000D01*
X169600000Y-36900000D02*
X168900000Y-36200000D01*
%TO.N,GND*%
X141825000Y-42630000D02*
X174330000Y-42630000D01*
X174330000Y-42630000D02*
X174350000Y-42650000D01*
D31*
X166100000Y-50900000D02*
X174350000Y-42650000D01*
X174350000Y-42650000D02*
X179600000Y-37400000D01*
D32*
X152600000Y-113700000D02*
X167000000Y-113700000D01*
X167000000Y-113700000D02*
X172300000Y-108400000D01*
X152600000Y-113700000D02*
X151190000Y-112290000D01*
X151190000Y-112290000D02*
X151190000Y-109527020D01*
D31*
X172300000Y-108400000D02*
X172300000Y-99000000D01*
X172300000Y-99000000D02*
X172300000Y-90100000D01*
D32*
X151090000Y-96290000D02*
X154800000Y-100000000D01*
X151090000Y-93227020D02*
X151090000Y-96290000D01*
X154800000Y-100000000D02*
X171300000Y-100000000D01*
X171300000Y-100000000D02*
X172300000Y-99000000D01*
D30*
X186760000Y-139050000D02*
X186760000Y-134660000D01*
X186760000Y-134660000D02*
X182900000Y-130800000D01*
X182900000Y-130800000D02*
X182900000Y-112320000D01*
X182900000Y-112320000D02*
X178980000Y-108400000D01*
X178980000Y-108400000D02*
X172300000Y-108400000D01*
D31*
X172300000Y-90100000D02*
X166100000Y-83900000D01*
X166100000Y-83900000D02*
X166100000Y-50900000D01*
D32*
%TO.N,Net-(J3-Pad2)*%
X154127500Y-90627500D02*
X157000000Y-93500000D01*
X151090000Y-90627500D02*
X154127500Y-90627500D01*
X157000000Y-93500000D02*
X161642500Y-93500000D01*
%TO.N,Net-(J4-Pad2)*%
X161690000Y-109852500D02*
X155797500Y-109852500D01*
X155797500Y-109852500D02*
X152872500Y-106927500D01*
X152872500Y-106927500D02*
X151190000Y-106927500D01*
D30*
%TO.N,/Servo_Left*%
X236000000Y-69640000D02*
X238440000Y-69640000D01*
X238440000Y-69640000D02*
X240200000Y-71400000D01*
X240200000Y-71400000D02*
X240200000Y-101600000D01*
X240200000Y-101600000D02*
X241150000Y-102550000D01*
X241150000Y-102550000D02*
X243655000Y-102550000D01*
%TO.N,GND*%
X138570000Y-45170000D02*
X133100000Y-39700000D01*
X130030000Y-36630000D02*
X133100000Y-39700000D01*
X117538630Y-36630000D02*
X127600000Y-36630000D01*
X141825000Y-45170000D02*
X138570000Y-45170000D01*
D33*
X115400000Y-40300000D02*
X115400000Y-40128856D01*
D30*
X115300000Y-48600000D02*
X115300000Y-40000000D01*
D33*
X115400000Y-40128856D02*
X115528856Y-40000000D01*
D30*
X115300000Y-38868630D02*
X117538630Y-36630000D01*
X127600000Y-36630000D02*
X130030000Y-36630000D01*
X199272000Y-47764000D02*
X203772000Y-47764000D01*
X172062000Y-66074000D02*
X172062000Y-70574000D01*
X133100000Y-39700000D02*
X128200000Y-39700000D01*
X115300000Y-40000000D02*
X115300000Y-38868630D01*
%TO.N,Net-(D2-Pad1)*%
X211400000Y-55080000D02*
X204076000Y-55080000D01*
X206912000Y-75376000D02*
X209876000Y-75376000D01*
X209876000Y-75376000D02*
X211800000Y-77300000D01*
X204076000Y-55080000D02*
X203772000Y-55384000D01*
D33*
X211800000Y-77300000D02*
X211840000Y-77260000D01*
D30*
X211840000Y-77260000D02*
X220760000Y-77260000D01*
%TO.N,Net-(D4-Pad1)*%
X184772000Y-54914000D02*
X184772000Y-64928000D01*
X214224000Y-86776000D02*
X216120000Y-84880000D01*
X216120000Y-84880000D02*
X220760000Y-84880000D01*
X179682000Y-66074000D02*
X183626000Y-66074000D01*
X206912000Y-86776000D02*
X214224000Y-86776000D01*
D33*
X184772000Y-54914000D02*
X184772000Y-60672000D01*
X184772000Y-60672000D02*
X184772000Y-60984000D01*
D30*
X184772000Y-64928000D02*
X183626000Y-66074000D01*
%TO.N,/3.3V*%
X132500000Y-51700000D02*
X143100000Y-51700000D01*
X131800000Y-55200000D02*
X131800000Y-52400000D01*
X150692500Y-59292500D02*
X150692500Y-72750000D01*
X131800000Y-52400000D02*
X132500000Y-51700000D01*
X143100000Y-51700000D02*
X150692500Y-59292500D01*
%TO.N,/GPIO_5*%
X121640000Y-90760000D02*
X131800000Y-90760000D01*
X161700000Y-143000000D02*
X160800000Y-143900000D01*
X112100000Y-134000000D02*
X112100000Y-100300000D01*
X161730000Y-140470000D02*
X161700000Y-140500000D01*
X161700000Y-140500000D02*
X161700000Y-143000000D01*
X122000000Y-143900000D02*
X112100000Y-134000000D01*
X160800000Y-143900000D02*
X122000000Y-143900000D01*
X112100000Y-100300000D02*
X121640000Y-90760000D01*
%TO.N,/GPIO_6*%
X167400000Y-144200000D02*
X166400000Y-143200000D01*
X124000000Y-93300000D02*
X131800000Y-93300000D01*
X166400000Y-136900000D02*
X164900000Y-135400000D01*
X120000000Y-135400000D02*
X116300000Y-131700000D01*
X166400000Y-143200000D02*
X166400000Y-136900000D01*
X168900000Y-144200000D02*
X167400000Y-144200000D01*
X116300000Y-131700000D02*
X116300000Y-101000000D01*
X170830000Y-142270000D02*
X168900000Y-144200000D01*
X170830000Y-140470000D02*
X170830000Y-142270000D01*
X116300000Y-101000000D02*
X124000000Y-93300000D01*
X164900000Y-135400000D02*
X120000000Y-135400000D01*
%TO.N,/GPIO_12*%
X141200000Y-93300000D02*
X134340000Y-93300000D01*
X151090000Y-88087500D02*
X146412500Y-88087500D01*
X146412500Y-88087500D02*
X141200000Y-93300000D01*
%TO.N,/GPIO_19*%
X173200000Y-132800000D02*
X122200000Y-132800000D01*
X177700000Y-144200000D02*
X176200000Y-144200000D01*
X175300000Y-134900000D02*
X173200000Y-132800000D01*
X119700000Y-102200000D02*
X123520000Y-98380000D01*
X176200000Y-144200000D02*
X175300000Y-143300000D01*
X119700000Y-130300000D02*
X119700000Y-102200000D01*
X179630000Y-142270000D02*
X177700000Y-144200000D01*
X179630000Y-140370000D02*
X179630000Y-142270000D01*
X175300000Y-143300000D02*
X175300000Y-134900000D01*
X123520000Y-98380000D02*
X131800000Y-98380000D01*
X122200000Y-132800000D02*
X119700000Y-130300000D01*
%TO.N,/GPIO_26*%
X183900000Y-136400000D02*
X183900000Y-143600000D01*
X125100000Y-130000000D02*
X177500000Y-130000000D01*
X125780000Y-100920000D02*
X123300000Y-103400000D01*
X123300000Y-103400000D02*
X123300000Y-128200000D01*
X184600000Y-144300000D02*
X187100000Y-144300000D01*
X131800000Y-100920000D02*
X125780000Y-100920000D01*
X123300000Y-128200000D02*
X125100000Y-130000000D01*
X187100000Y-144300000D02*
X188030000Y-143370000D01*
X177500000Y-130000000D02*
X183900000Y-136400000D01*
X183900000Y-143600000D02*
X184600000Y-144300000D01*
X188030000Y-143370000D02*
X188030000Y-140320000D01*
%TO.N,/Encoder_2_B*%
X201832000Y-86776000D02*
X201832000Y-89032000D01*
X239500000Y-126700000D02*
X239500000Y-130200000D01*
X201832000Y-89032000D02*
X239500000Y-126700000D01*
%TO.N,/Encoder_1_A*%
X197426000Y-72074000D02*
X194500000Y-75000000D01*
X223500000Y-127000000D02*
X223500000Y-130200000D01*
X194500000Y-98000000D02*
X223500000Y-127000000D01*
X201832000Y-72074000D02*
X197426000Y-72074000D01*
X194500000Y-75000000D02*
X194500000Y-98000000D01*
%TO.N,/Encoder_2_A*%
X236000000Y-130200000D02*
X236000000Y-127450000D01*
X200226000Y-83474000D02*
X201832000Y-83474000D01*
X199600000Y-91050000D02*
X199600000Y-84100000D01*
X199600000Y-84100000D02*
X200226000Y-83474000D01*
X236000000Y-127450000D02*
X199600000Y-91050000D01*
%TO.N,/Servo_Right*%
X243655000Y-99050000D02*
X243655000Y-71455000D01*
X243655000Y-71455000D02*
X239300000Y-67100000D01*
X239300000Y-67100000D02*
X236000000Y-67100000D01*
%TO.N,Net-(Q2-Pad1)*%
X189400000Y-138950000D02*
X189300000Y-139050000D01*
X187075000Y-125450000D02*
X187075000Y-130175000D01*
X189400000Y-132500000D02*
X189400000Y-138950000D01*
X187075000Y-130175000D02*
X189400000Y-132500000D01*
%TO.N,Net-(R1-Pad1)*%
X191626000Y-49974000D02*
X198500000Y-43100000D01*
X211072000Y-50034000D02*
X230234000Y-50034000D01*
X236000000Y-55800000D02*
X236000000Y-59480000D01*
D33*
X188632000Y-49834000D02*
X188772000Y-49974000D01*
D30*
X211400000Y-45200000D02*
X211400000Y-50000000D01*
X230234000Y-50034000D02*
X236000000Y-55800000D01*
X188772000Y-49974000D02*
X191626000Y-49974000D01*
X184772000Y-49834000D02*
X188632000Y-49834000D01*
X209300000Y-43100000D02*
X211400000Y-45200000D01*
X198500000Y-43100000D02*
X209300000Y-43100000D01*
%TO.N,Net-(D3-Pad1)*%
X215460000Y-82340000D02*
X220760000Y-82340000D01*
X206912000Y-83474000D02*
X214326000Y-83474000D01*
X183726000Y-70574000D02*
X188772000Y-65528000D01*
X179682000Y-70574000D02*
X183726000Y-70574000D01*
X188772000Y-65528000D02*
X188772000Y-55054000D01*
X214326000Y-83474000D02*
X215460000Y-82340000D01*
D33*
X188772000Y-61484000D02*
X188772000Y-55054000D01*
D30*
%TO.N,/Encoder_1_B*%
X197100000Y-76900000D02*
X197100000Y-96500000D01*
X197100000Y-96500000D02*
X227000000Y-126400000D01*
X227000000Y-126400000D02*
X227000000Y-130200000D01*
X198624000Y-75376000D02*
X197100000Y-76900000D01*
X201832000Y-75376000D02*
X198624000Y-75376000D01*
%TO.N,Net-(SW2-Pad1)*%
X215800000Y-91920000D02*
X215800000Y-98800000D01*
X217760000Y-89960000D02*
X215800000Y-91920000D01*
X221350000Y-104350000D02*
X225550000Y-104350000D01*
X220760000Y-89960000D02*
X217760000Y-89960000D01*
X215800000Y-98800000D02*
X221350000Y-104350000D01*
%TO.N,Net-(SW2-Pad2)*%
X220760000Y-92500000D02*
X220760000Y-97260000D01*
X223350000Y-99850000D02*
X225550000Y-99850000D01*
X220760000Y-97260000D02*
X223350000Y-99850000D01*
%TO.N,Net-(D1-Pad1)*%
X214100000Y-59000000D02*
X215500000Y-57600000D01*
X212774000Y-72074000D02*
X215420000Y-74720000D01*
X201000000Y-59000000D02*
X214100000Y-59000000D01*
X199272000Y-55384000D02*
X199272000Y-63340000D01*
X200366000Y-64434000D02*
X202034000Y-64434000D01*
X199272000Y-63340000D02*
X200366000Y-64434000D01*
X206912000Y-69312000D02*
X206912000Y-72074000D01*
X202034000Y-64434000D02*
X206912000Y-69312000D01*
X206912000Y-72074000D02*
X212774000Y-72074000D01*
X199272000Y-57272000D02*
X201000000Y-59000000D01*
X215420000Y-74720000D02*
X220760000Y-74720000D01*
X215500000Y-57600000D02*
X215500000Y-55040000D01*
%TO.N,Net-(C1-Pad1)*%
X126100000Y-44200000D02*
X128200000Y-44200000D01*
X117800000Y-48600000D02*
X121700000Y-48600000D01*
X121700000Y-48600000D02*
X126100000Y-44200000D01*
%TO.N,Net-(C2-Pad1)*%
X126600000Y-42200000D02*
X124400000Y-40000000D01*
X124400000Y-40000000D02*
X118028856Y-40000000D01*
X126600000Y-42200000D02*
X128200000Y-42200000D01*
%TO.N,Net-(J8-Pad1)*%
X128200000Y-46700000D02*
X135100000Y-46700000D01*
X136110000Y-47710000D02*
X141825000Y-47710000D01*
X135100000Y-46700000D02*
X136110000Y-47710000D01*
%TD*%
M02*
