%TF.GenerationSoftware,KiCad,Pcbnew,6.0.2-378541a8eb~116~ubuntu20.04.1*%
%TF.CreationDate,2022-03-03T13:02:13+02:00*%
%TF.ProjectId,system,73797374-656d-42e6-9b69-6361645f7063,rev?*%
%TF.SameCoordinates,Original*%
%TF.FileFunction,Soldermask,Bot*%
%TF.FilePolarity,Negative*%
%FSLAX46Y46*%
G04 Gerber Fmt 4.6, Leading zero omitted, Abs format (unit mm)*
G04 Created by KiCad (PCBNEW 6.0.2-378541a8eb~116~ubuntu20.04.1) date 2022-03-03 13:02:13*
%MOMM*%
%LPD*%
G01*
G04 APERTURE LIST*
G04 Aperture macros list*
%AMRoundRect*
0 Rectangle with rounded corners*
0 $1 Rounding radius*
0 $2 $3 $4 $5 $6 $7 $8 $9 X,Y pos of 4 corners*
0 Add a 4 corners polygon primitive as box body*
4,1,4,$2,$3,$4,$5,$6,$7,$8,$9,$2,$3,0*
0 Add four circle primitives for the rounded corners*
1,1,$1+$1,$2,$3*
1,1,$1+$1,$4,$5*
1,1,$1+$1,$6,$7*
1,1,$1+$1,$8,$9*
0 Add four rect primitives between the rounded corners*
20,1,$1+$1,$2,$3,$4,$5,0*
20,1,$1+$1,$4,$5,$6,$7,0*
20,1,$1+$1,$6,$7,$8,$9,0*
20,1,$1+$1,$8,$9,$2,$3,0*%
G04 Aperture macros list end*
%ADD10R,1.700000X1.700000*%
%ADD11C,1.400000*%
%ADD12O,1.400000X1.400000*%
%ADD13O,1.700000X1.700000*%
%ADD14R,1.050000X1.500000*%
%ADD15O,1.050000X1.500000*%
%ADD16R,1.600000X1.600000*%
%ADD17C,1.600000*%
%ADD18O,1.600000X1.600000*%
%ADD19R,2.600000X2.600000*%
%ADD20C,2.600000*%
%ADD21R,1.800000X1.100000*%
%ADD22RoundRect,0.275000X-0.625000X0.275000X-0.625000X-0.275000X0.625000X-0.275000X0.625000X0.275000X0*%
%ADD23C,2.000000*%
%ADD24R,1.300000X1.300000*%
%ADD25C,1.300000*%
%ADD26O,2.900000X1.900000*%
%ADD27O,1.900000X2.900000*%
%ADD28R,1.400000X1.400000*%
G04 APERTURE END LIST*
D10*
%TO.C,Sol4*%
X178800000Y-125400000D03*
%TD*%
%TO.C,Sol2*%
X169900000Y-125400000D03*
%TD*%
D11*
%TO.C,R6*%
X201832000Y-83474000D03*
D12*
X206912000Y-83474000D03*
%TD*%
D11*
%TO.C,R7*%
X184772000Y-49834000D03*
D12*
X184772000Y-54914000D03*
%TD*%
D10*
%TO.C,J12*%
X243925000Y-42300000D03*
D13*
X246465000Y-42300000D03*
X243925000Y-44840000D03*
X246465000Y-44840000D03*
X243925000Y-47380000D03*
X246465000Y-47380000D03*
X243925000Y-49920000D03*
X246465000Y-49920000D03*
%TD*%
D11*
%TO.C,R4*%
X201832000Y-75376000D03*
D12*
X206912000Y-75376000D03*
%TD*%
D11*
%TO.C,R8*%
X201832000Y-86776000D03*
D12*
X206912000Y-86776000D03*
%TD*%
D14*
%TO.C,Q1*%
X180900000Y-139100000D03*
D15*
X179630000Y-139100000D03*
X178360000Y-139100000D03*
%TD*%
D10*
%TO.C,J4*%
X151190000Y-104387500D03*
D13*
X151190000Y-106927500D03*
X151190000Y-109467500D03*
%TD*%
D10*
%TO.C,Reg1*%
X141825000Y-37550000D03*
D13*
X141825000Y-40090000D03*
X141825000Y-42630000D03*
X141825000Y-45170000D03*
X141825000Y-47710000D03*
%TD*%
D16*
%TO.C,C1*%
X117800000Y-48600000D03*
D17*
X115300000Y-48600000D03*
%TD*%
D14*
%TO.C,Q3*%
X172100000Y-139200000D03*
D15*
X170830000Y-139200000D03*
X169560000Y-139200000D03*
%TD*%
D16*
%TO.C,D1*%
X199272000Y-55384000D03*
D18*
X199272000Y-47764000D03*
%TD*%
D10*
%TO.C,J10*%
X109325000Y-65525000D03*
D13*
X111865000Y-65525000D03*
X109325000Y-68065000D03*
X111865000Y-68065000D03*
X109325000Y-70605000D03*
X111865000Y-70605000D03*
X109325000Y-73145000D03*
X111865000Y-73145000D03*
X109325000Y-75685000D03*
X111865000Y-75685000D03*
X109325000Y-78225000D03*
X111865000Y-78225000D03*
X109325000Y-80765000D03*
X111865000Y-80765000D03*
X109325000Y-83305000D03*
X111865000Y-83305000D03*
%TD*%
D19*
%TO.C,J5*%
X239500000Y-130200000D03*
D20*
X236000000Y-130200000D03*
%TD*%
D21*
%TO.C,Q6*%
X161290000Y-107312500D03*
D22*
X163360000Y-108582500D03*
X161290000Y-109852500D03*
%TD*%
D11*
%TO.C,R3*%
X201832000Y-72074000D03*
D12*
X206912000Y-72074000D03*
%TD*%
D23*
%TO.C,SW2*%
X225550000Y-104350000D03*
X232050000Y-104350000D03*
X225550000Y-99850000D03*
X232050000Y-99850000D03*
%TD*%
D17*
%TO.C,U1*%
X220760000Y-59480000D03*
X220760000Y-62020000D03*
X220760000Y-64560000D03*
X220760000Y-67100000D03*
X220760000Y-69640000D03*
X220760000Y-72180000D03*
X220760000Y-74720000D03*
X220760000Y-77260000D03*
X220760000Y-79800000D03*
X220760000Y-82340000D03*
X220760000Y-84880000D03*
X220760000Y-87420000D03*
X220760000Y-89960000D03*
X220760000Y-92500000D03*
X223300000Y-92500000D03*
X225840000Y-92500000D03*
X228380000Y-92500000D03*
X230920000Y-92500000D03*
X233460000Y-92500000D03*
X236000000Y-92500000D03*
X236000000Y-89960000D03*
X236000000Y-87420000D03*
X236000000Y-84880000D03*
X236000000Y-82340000D03*
X236000000Y-79800000D03*
X236000000Y-77260000D03*
X236000000Y-74720000D03*
X236000000Y-72180000D03*
X236000000Y-69640000D03*
X236000000Y-67100000D03*
X236000000Y-64560000D03*
X236000000Y-62020000D03*
X236000000Y-59480000D03*
X233460000Y-62020000D03*
X233460000Y-87420000D03*
X233460000Y-84880000D03*
X230920000Y-87420000D03*
X230920000Y-84880000D03*
X228380000Y-87420000D03*
X228380000Y-84880000D03*
X225840000Y-87420000D03*
X225840000Y-84880000D03*
X223300000Y-87420000D03*
X223300000Y-84880000D03*
%TD*%
D16*
%TO.C,D2*%
X203772000Y-55384000D03*
D18*
X203772000Y-47764000D03*
%TD*%
D11*
%TO.C,R2*%
X211400000Y-50000000D03*
D12*
X211400000Y-55080000D03*
%TD*%
D24*
%TO.C,J8*%
X128200000Y-46700000D03*
D25*
X128200000Y-44200000D03*
X128200000Y-42200000D03*
X128200000Y-39700000D03*
D26*
X127600000Y-49770000D03*
D27*
X123420000Y-43200000D03*
D26*
X127600000Y-36630000D03*
%TD*%
D16*
%TO.C,C2*%
X118028856Y-40000000D03*
D17*
X115528856Y-40000000D03*
%TD*%
D10*
%TO.C,Sol3*%
X160775000Y-125350000D03*
%TD*%
D19*
%TO.C,J6*%
X243655000Y-99050000D03*
D20*
X243655000Y-102550000D03*
%TD*%
D16*
%TO.C,D3*%
X179682000Y-70574000D03*
D18*
X172062000Y-70574000D03*
%TD*%
D11*
%TO.C,R1*%
X215500000Y-49960000D03*
D12*
X215500000Y-55040000D03*
%TD*%
D28*
%TO.C,SW1*%
X150692500Y-72750000D03*
D11*
X153192500Y-72750000D03*
X155692500Y-72750000D03*
X150692500Y-76050000D03*
X153192500Y-76050000D03*
X155692500Y-76050000D03*
%TD*%
D10*
%TO.C,J1*%
X131800000Y-55200000D03*
D13*
X134340000Y-55200000D03*
X131800000Y-57740000D03*
X134340000Y-57740000D03*
X131800000Y-60280000D03*
X134340000Y-60280000D03*
X131800000Y-62820000D03*
X134340000Y-62820000D03*
X131800000Y-65360000D03*
X134340000Y-65360000D03*
X131800000Y-67900000D03*
X134340000Y-67900000D03*
X131800000Y-70440000D03*
X134340000Y-70440000D03*
X131800000Y-72980000D03*
X134340000Y-72980000D03*
X131800000Y-75520000D03*
X134340000Y-75520000D03*
X131800000Y-78060000D03*
X134340000Y-78060000D03*
X131800000Y-80600000D03*
X134340000Y-80600000D03*
X131800000Y-83140000D03*
X134340000Y-83140000D03*
X131800000Y-85680000D03*
X134340000Y-85680000D03*
X131800000Y-88220000D03*
X134340000Y-88220000D03*
X131800000Y-90760000D03*
X134340000Y-90760000D03*
X131800000Y-93300000D03*
X134340000Y-93300000D03*
X131800000Y-95840000D03*
X134340000Y-95840000D03*
X131800000Y-98380000D03*
X134340000Y-98380000D03*
X131800000Y-100920000D03*
X134340000Y-100920000D03*
X131800000Y-103460000D03*
X134340000Y-103460000D03*
%TD*%
D10*
%TO.C,J3*%
X151090000Y-88087500D03*
D13*
X151090000Y-90627500D03*
X151090000Y-93167500D03*
%TD*%
D10*
%TO.C,Sol1*%
X187075000Y-125450000D03*
%TD*%
D16*
%TO.C,D4*%
X179682000Y-66074000D03*
D18*
X172062000Y-66074000D03*
%TD*%
D11*
%TO.C,R5*%
X188772000Y-49974000D03*
D12*
X188772000Y-55054000D03*
%TD*%
D19*
%TO.C,J2*%
X227000000Y-130200000D03*
D20*
X223500000Y-130200000D03*
%TD*%
D14*
%TO.C,Q2*%
X189300000Y-139050000D03*
D15*
X188030000Y-139050000D03*
X186760000Y-139050000D03*
%TD*%
D21*
%TO.C,Q5*%
X161290000Y-90912500D03*
D22*
X163360000Y-92182500D03*
X161290000Y-93452500D03*
%TD*%
D14*
%TO.C,Q4*%
X163000000Y-139200000D03*
D15*
X161730000Y-139200000D03*
X160460000Y-139200000D03*
%TD*%
D10*
%TO.C,J11*%
X237350000Y-42300000D03*
D13*
X239890000Y-42300000D03*
X237350000Y-44840000D03*
X239890000Y-44840000D03*
X237350000Y-47380000D03*
X239890000Y-47380000D03*
X237350000Y-49920000D03*
X239890000Y-49920000D03*
%TD*%
D10*
%TO.C,J9*%
X115925000Y-65525000D03*
D13*
X118465000Y-65525000D03*
X115925000Y-68065000D03*
X118465000Y-68065000D03*
X115925000Y-70605000D03*
X118465000Y-70605000D03*
X115925000Y-73145000D03*
X118465000Y-73145000D03*
X115925000Y-75685000D03*
X118465000Y-75685000D03*
X115925000Y-78225000D03*
X118465000Y-78225000D03*
X115925000Y-80765000D03*
X118465000Y-80765000D03*
X115925000Y-83305000D03*
X118465000Y-83305000D03*
%TD*%
D19*
%TO.C,J7*%
X169750000Y-40645000D03*
D20*
X173250000Y-40645000D03*
%TD*%
M02*
